<?xml version="1.0" encoding="UTF-8"?>
<!DOCTYPE svg PUBLIC "-//W3C//DTD SVG 1.1//EN" "http://www.w3.org/Graphics/SVG/1.1/DTD/svg11.dtd">
<svg xmlns="http://www.w3.org/2000/svg" version="1.1" width="1024px" height="1024px" style="shape-rendering:geometricPrecision; text-rendering:geometricPrecision; image-rendering:optimizeQuality; fill-rule:evenodd; clip-rule:evenodd" xmlns:xlink="http://www.w3.org/1999/xlink">
<g><path style="opacity:1" fill="#fefcfb" d="M -0.5,-0.5 C 340.833,-0.5 682.167,-0.5 1023.5,-0.5C 1023.5,340.833 1023.5,682.167 1023.5,1023.5C 682.167,1023.5 340.833,1023.5 -0.5,1023.5C -0.5,682.167 -0.5,340.833 -0.5,-0.5 Z"/></g>
<g><path style="opacity:1" fill="#02285b" d="M 257.5,342.5 C 274.766,341.578 280.932,349.245 276,365.5C 267.312,374.728 258.645,374.728 250,365.5C 245.08,355.354 247.58,347.687 257.5,342.5 Z"/></g>
<g><path style="opacity:1" fill="#fea109" d="M 170.5,393.5 C 169.668,392.671 170.001,391.838 171.5,391C 174.58,388.71 177.747,386.543 181,384.5C 181.483,383.552 181.649,382.552 181.5,381.5C 185.29,381.992 185.956,381.159 183.5,379C 184.849,378.228 185.682,377.061 186,375.5C 186.923,376.759 187.757,378.092 188.5,379.5C 194.597,376.118 200.93,373.284 207.5,371C 206.034,370.365 204.7,369.531 203.5,368.5C 202.549,369.326 201.549,369.492 200.5,369C 201.641,368.259 201.641,367.425 200.5,366.5C 204.779,361.785 204.113,360.785 198.5,363.5C 198.723,364.967 199.056,366.467 199.5,368C 198.552,368.483 197.552,368.649 196.5,368.5C 196.807,370.446 196.807,372.113 196.5,373.5C 195.713,372.758 195.047,371.925 194.5,371C 195.424,370.15 195.424,369.15 194.5,368C 195.022,367.05 195.689,366.216 196.5,365.5C 196,365.167 195.5,364.833 195,364.5C 172.819,374.513 154.319,389.179 139.5,408.5C 155.744,385.115 177.411,368.615 204.5,359C 211.963,356.423 219.63,354.923 227.5,354.5C 228.007,358.86 228.673,363.193 229.5,367.5C 207.351,370.763 187.684,379.43 170.5,393.5 Z"/></g>
<g><path style="opacity:1" fill="#fe9515" d="M 351.5,407.5 C 336.093,387.279 316.427,372.612 292.5,363.5C 290.706,365.682 289.373,368.182 288.5,371C 297.011,374.951 305.345,379.285 313.5,384C 319.673,388.011 325.006,392.844 329.5,398.5C 316.836,387.158 302.503,378.324 286.5,372C 288.038,368.424 289.705,364.924 291.5,361.5C 311.944,368.801 329.444,380.468 344,396.5C 347.138,399.792 349.638,403.458 351.5,407.5 Z"/></g>
<g><path style="opacity:1" fill="#fea805" d="M 351.5,407.5 C 365.752,426.705 373.919,448.372 376,472.5C 380.244,537.554 352.411,582.388 292.5,607C 282.995,609.96 273.328,612.127 263.5,613.5C 263.174,609.116 263.508,604.783 264.5,600.5C 321.919,590.248 354.752,556.248 363,498.5C 366.673,460.018 355.506,426.685 329.5,398.5C 325.006,392.844 319.673,388.011 313.5,384C 305.345,379.285 297.011,374.951 288.5,371C 289.373,368.182 290.706,365.682 292.5,363.5C 316.427,372.612 336.093,387.279 351.5,407.5 Z"/></g>
<g><path style="opacity:1" fill="#052758" d="M 582.5,442.5 C 589.304,441.221 593.304,443.888 594.5,450.5C 594.096,455.737 591.263,458.403 586,458.5C 579.192,457.893 576.526,454.227 578,447.5C 579.025,445.313 580.525,443.646 582.5,442.5 Z"/></g>
<g><path style="opacity:1" fill="#061230" d="M 772.5,479.5 C 771.505,467.678 771.172,455.678 771.5,443.5C 767.833,443.5 764.167,443.5 760.5,443.5C 760.5,473.167 760.5,502.833 760.5,532.5C 764.167,532.5 767.833,532.5 771.5,532.5C 770.852,519.124 771.519,506.124 773.5,493.5C 773.5,506.833 773.5,520.167 773.5,533.5C 768.833,533.5 764.167,533.5 759.5,533.5C 759.5,503.167 759.5,472.833 759.5,442.5C 763.833,442.5 768.167,442.5 772.5,442.5C 772.5,454.833 772.5,467.167 772.5,479.5 Z"/></g>
<g><path style="opacity:1" fill="#03285b" d="M 443.5,441.5 C 471.614,439.463 488.781,452.129 495,479.5C 496.483,492.234 494.15,504.234 488,515.5C 475.65,531.619 459.483,537.452 439.5,533C 422.722,526.947 412.889,515.114 410,497.5C 405.659,469.135 416.826,450.469 443.5,441.5 Z"/></g>
<g><path style="opacity:1" fill="#fcfcfb" d="M 445.5,455.5 C 463.318,453.648 474.485,461.315 479,478.5C 480.507,488.601 479.174,498.268 475,507.5C 464.128,521.741 450.961,524.241 435.5,515C 429.514,509.862 426.014,503.362 425,495.5C 421.6,476.627 428.434,463.294 445.5,455.5 Z"/></g>
<g><path style="opacity:1" fill="#01001f" d="M 911.5,452.5 C 911.666,458.509 911.499,464.509 911,470.5C 910.501,464.843 910.334,459.176 910.5,453.5C 906.833,453.5 903.167,453.5 899.5,453.5C 899.821,459.026 899.488,464.36 898.5,469.5C 898.5,463.833 898.5,458.167 898.5,452.5C 902.833,452.5 907.167,452.5 911.5,452.5 Z"/></g>
<g><path style="opacity:1" fill="#356f9f" d="M 773.5,478.5 C 773.5,479.167 773.167,479.5 772.5,479.5C 772.5,467.167 772.5,454.833 772.5,442.5C 768.167,442.5 763.833,442.5 759.5,442.5C 759.5,472.833 759.5,503.167 759.5,533.5C 758.502,503.005 758.169,472.338 758.5,441.5C 763.5,441.5 768.5,441.5 773.5,441.5C 773.5,453.833 773.5,466.167 773.5,478.5 Z"/></g>
<g><path style="opacity:1" fill="#052a5d" d="M 911.5,452.5 C 912.49,458.31 912.823,464.31 912.5,470.5C 917.833,470.5 923.167,470.5 928.5,470.5C 928.5,474.5 928.5,478.5 928.5,482.5C 923.167,482.5 917.833,482.5 912.5,482.5C 912.333,494.505 912.5,506.505 913,518.5C 913.5,520.333 914.667,521.5 916.5,522C 920.821,522.499 925.154,522.666 929.5,522.5C 929.5,526.167 929.5,529.833 929.5,533.5C 920.823,535.583 912.49,534.75 904.5,531C 901.533,528.9 899.7,526.066 899,522.5C 898.5,509.171 898.333,495.837 898.5,482.5C 894.833,482.5 891.167,482.5 887.5,482.5C 887.5,478.5 887.5,474.5 887.5,470.5C 891.371,470.815 895.038,470.482 898.5,469.5C 899.488,464.36 899.821,459.026 899.5,453.5C 903.167,453.5 906.833,453.5 910.5,453.5C 910.334,459.176 910.501,464.843 911,470.5C 911.499,464.509 911.666,458.509 911.5,452.5 Z"/></g>
<g><path style="opacity:1" fill="#03295c" d="M 657.5,486.5 C 656.212,502.216 656.212,517.882 657.5,533.5C 653.167,533.5 648.833,533.5 644.5,533.5C 644.517,530.08 644.683,526.746 645,523.5C 637.665,534.055 627.832,537.222 615.5,533C 603.354,525.891 600.52,516.057 607,503.5C 611.751,499.467 617.251,496.967 623.5,496C 630.492,495.5 637.492,495.334 644.5,495.5C 645.621,486.119 641.454,481.119 632,480.5C 625.55,480.464 621.383,483.464 619.5,489.5C 614.88,490.493 610.214,490.827 605.5,490.5C 606.308,479.188 612.308,472.354 623.5,470C 635.693,466.9 646.193,469.733 655,478.5C 656.707,480.909 657.54,483.575 657.5,486.5 Z"/></g>
<g><path style="opacity:1" fill="#06173e" d="M 344.5,468.5 C 346.128,482.943 345.461,497.276 342.5,511.5C 341.853,510.726 341.52,509.726 341.5,508.5C 342.912,495.047 343.912,481.714 344.5,468.5 Z"/></g>
<g><path style="opacity:1" fill="#52779f" d="M 506.5,470.5 C 506.5,470.833 506.5,471.167 506.5,471.5C 506.5,500.833 506.5,530.167 506.5,559.5C 511.167,559.5 515.833,559.5 520.5,559.5C 515.695,560.487 510.695,560.821 505.5,560.5C 505.169,530.329 505.502,500.329 506.5,470.5 Z"/></g>
<g><path style="opacity:1" fill="#01001f" d="M 506.5,471.5 C 507.498,500.329 507.831,529.329 507.5,558.5C 511.167,558.5 514.833,558.5 518.5,558.5C 519.167,558.5 519.833,558.5 520.5,558.5C 520.5,558.833 520.5,559.167 520.5,559.5C 515.833,559.5 511.167,559.5 506.5,559.5C 506.5,530.167 506.5,500.833 506.5,471.5 Z"/></g>
<g><path style="opacity:1" fill="#0b132c" d="M 831.5,479.5 C 830.242,482.694 829.576,486.027 829.5,489.5C 833.827,489.984 837.827,489.318 841.5,487.5C 841.5,488.5 841.5,489.5 841.5,490.5C 836.833,490.5 832.167,490.5 827.5,490.5C 827.677,486.292 829.01,482.626 831.5,479.5 Z"/></g>
<g><path style="opacity:1" fill="#012b60" d="M 772.5,479.5 C 773.167,479.5 773.5,479.167 773.5,478.5C 777.963,472.186 784.13,469.186 792,469.5C 797.236,469.024 802.069,470.19 806.5,473C 808.464,474.451 809.797,476.284 810.5,478.5C 811.606,481.054 812.439,483.721 813,486.5C 813.5,501.83 813.667,517.163 813.5,532.5C 809.833,532.5 806.167,532.5 802.5,532.5C 802.829,518.99 802.496,505.656 801.5,492.5C 797.449,481.652 790.115,478.819 779.5,484C 776.031,486.29 774.031,489.456 773.5,493.5C 771.519,506.124 770.852,519.124 771.5,532.5C 767.833,532.5 764.167,532.5 760.5,532.5C 760.5,502.833 760.5,473.167 760.5,443.5C 764.167,443.5 767.833,443.5 771.5,443.5C 771.172,455.678 771.505,467.678 772.5,479.5 Z"/></g>
<g><path style="opacity:1" fill="#042b60" d="M 864.5,470.5 C 868.523,472.227 872.356,475.227 876,479.5C 876.862,481.087 877.529,482.754 878,484.5C 878.5,500.497 878.667,516.497 878.5,532.5C 875.167,532.5 871.833,532.5 868.5,532.5C 868.664,529.813 868.497,527.146 868,524.5C 867.502,527.482 867.335,530.482 867.5,533.5C 866.681,530.695 866.181,527.695 866,524.5C 865.623,525.942 864.79,526.942 863.5,527.5C 856.245,532.658 848.245,534.158 839.5,532C 840.328,531.085 841.328,530.419 842.5,530C 841.167,528.667 841.167,527.333 842.5,526C 841.833,525.667 841.167,525.333 840.5,525C 841.667,524.5 842.5,523.667 843,522.5C 844.292,523.791 845.458,523.791 846.5,522.5C 858.759,524.722 865.426,519.722 866.5,507.5C 867.774,506.811 867.774,505.977 866.5,505C 859.802,504.243 853.136,504.409 846.5,505.5C 843.937,505.263 843.937,504.763 846.5,504C 844.892,503.342 843.725,503.842 843,505.5C 842.517,504.552 842.351,503.552 842.5,502.5C 846.221,502.207 846.055,501.541 842,500.5C 840.715,500.95 839.548,501.617 838.5,502.5C 837.406,501.132 837.74,499.965 839.5,499C 840.833,498.667 842.167,498.333 843.5,498C 842.906,497.536 842.239,497.369 841.5,497.5C 842.952,496.698 844.618,496.198 846.5,496C 853.158,495.5 859.825,495.334 866.5,495.5C 867.325,489.657 865.325,485.157 860.5,482C 856.167,481.333 851.833,481.333 847.5,482C 844.977,483.36 842.977,485.193 841.5,487.5C 837.827,489.318 833.827,489.984 829.5,489.5C 829.576,486.027 830.242,482.694 831.5,479.5C 834.481,474.713 838.814,471.546 844.5,470C 851.373,467.865 858.039,468.032 864.5,470.5 Z"/></g>
<g><path style="opacity:1" fill="#0a1e46" d="M 150.5,467.5 C 151.33,477.659 151.83,487.992 152,498.5C 152.845,504.892 154.012,511.226 155.5,517.5C 155.457,518.416 155.124,519.083 154.5,519.5C 149.787,502.431 148.453,485.098 150.5,467.5 Z"/></g>
<g><path style="opacity:1" fill="#000f48" d="M 657.5,486.5 C 658.833,502.167 658.833,517.833 657.5,533.5C 656.212,517.882 656.212,502.216 657.5,486.5 Z"/></g>
<g><path style="opacity:1" fill="#032759" d="M 703.5,441.5 C 719.254,439.139 732.421,443.805 743,455.5C 746.021,460.062 747.521,465.062 747.5,470.5C 742.812,471.468 738.145,471.468 733.5,470.5C 727.323,456.853 716.989,452.353 702.5,457C 690.562,463.308 684.896,473.308 685.5,487C 685.104,498.535 689.104,508.201 697.5,516C 713.048,524.728 725.048,521.395 733.5,506C 738.155,505.501 742.821,505.334 747.5,505.5C 745.266,521.238 736.266,530.738 720.5,534C 693.363,536.341 676.863,524.175 671,497.5C 666.733,469.663 677.566,450.997 703.5,441.5 Z"/></g>
<g><path style="opacity:1" fill="#010127" d="M 578.5,470.5 C 583.167,470.5 587.833,470.5 592.5,470.5C 592.5,491.5 592.5,512.5 592.5,533.5C 587.833,533.5 583.167,533.5 578.5,533.5C 578.5,512.5 578.5,491.5 578.5,470.5 Z"/></g>
<g><path style="opacity:1" fill="#002a60" d="M 579.5,472.5 C 583.5,472.5 587.5,472.5 591.5,472.5C 591.5,492.5 591.5,512.5 591.5,532.5C 587.5,532.5 583.5,532.5 579.5,532.5C 579.5,512.5 579.5,492.5 579.5,472.5 Z"/></g>
<g><path style="opacity:1" fill="#f7f8f9" d="M 624.5,506.5 C 631.167,506.5 637.833,506.5 644.5,506.5C 644.886,517.28 639.719,522.614 629,522.5C 619.944,523.004 616.611,519.004 619,510.5C 620.5,508.531 622.333,507.198 624.5,506.5 Z"/></g>
<g><path style="opacity:1" fill="#f9fafa" d="M 866.5,507.5 C 865.426,519.722 858.759,524.722 846.5,522.5C 838.76,518.967 837.76,514.134 843.5,508C 851.265,506.258 858.931,506.091 866.5,507.5 Z"/></g>
<g><path style="opacity:1" fill="#041134" d="M 810.5,478.5 C 812.837,480.965 814.337,483.965 815,487.5C 815.5,502.83 815.667,518.163 815.5,533.5C 810.833,533.5 806.167,533.5 801.5,533.5C 801.5,519.833 801.5,506.167 801.5,492.5C 802.496,505.656 802.829,518.99 802.5,532.5C 806.167,532.5 809.833,532.5 813.5,532.5C 813.667,517.163 813.5,501.83 813,486.5C 812.439,483.721 811.606,481.054 810.5,478.5 Z"/></g>
<g><path style="opacity:1" fill="#042353" d="M 841.5,497.5 C 842.239,497.369 842.906,497.536 843.5,498C 842.167,498.333 840.833,498.667 839.5,499C 837.74,499.965 837.406,501.132 838.5,502.5C 839.548,501.617 840.715,500.95 842,500.5C 846.055,501.541 846.221,502.207 842.5,502.5C 842.351,503.552 842.517,504.552 843,505.5C 843.725,503.842 844.892,503.342 846.5,504C 843.937,504.763 843.937,505.263 846.5,505.5C 853.136,504.409 859.802,504.243 866.5,505C 867.774,505.977 867.774,506.811 866.5,507.5C 858.931,506.091 851.265,506.258 843.5,508C 837.76,514.134 838.76,518.967 846.5,522.5C 845.458,523.791 844.292,523.791 843,522.5C 842.5,523.667 841.667,524.5 840.5,525C 841.167,525.333 841.833,525.667 842.5,526C 841.167,527.333 841.167,528.667 842.5,530C 841.328,530.419 840.328,531.085 839.5,532C 848.245,534.158 856.245,532.658 863.5,527.5C 859.293,532.632 853.793,534.965 847,534.5C 830.783,533.282 823.783,524.616 826,508.5C 828.976,501.761 834.143,498.094 841.5,497.5 Z"/></g>
<g><path style="opacity:1" fill="#022b60" d="M 520.5,526.5 C 519.778,526.082 519.278,525.416 519,524.5C 518.5,535.828 518.333,547.162 518.5,558.5C 514.833,558.5 511.167,558.5 507.5,558.5C 507.831,529.329 507.498,500.329 506.5,471.5C 506.5,471.167 506.5,470.833 506.5,470.5C 510.833,470.5 515.167,470.5 519.5,470.5C 519.335,473.85 519.502,477.183 520,480.5C 522.332,474.836 526.499,471.336 532.5,470C 555.146,466.825 567.146,476.658 568.5,499.5C 568.894,524.278 556.894,535.778 532.5,534C 527.645,532.495 523.812,529.662 521,525.5C 520.601,525.728 520.435,526.062 520.5,526.5 Z"/></g>
<g><path style="opacity:1" fill="#fbfbfa" d="M 531.5,481.5 C 542.568,479.609 549.734,483.943 553,494.5C 554.231,501.85 553.231,508.85 550,515.5C 544.425,521.936 537.592,523.769 529.5,521C 526.333,519.167 523.833,516.667 522,513.5C 520.494,506.567 520.161,499.567 521,492.5C 523.02,487.315 526.52,483.648 531.5,481.5 Z"/></g>
<g><path style="opacity:1" fill="#012a5f" d="M 344.5,468.5 C 343.912,481.714 342.912,495.047 341.5,508.5C 341.52,509.726 341.853,510.726 342.5,511.5C 339.222,531.251 329.889,547.418 314.5,560C 310.086,562.526 305.42,564.359 300.5,565.5C 291.343,564.342 282.009,564.176 272.5,565C 257.658,570.357 242.658,571.857 227.5,569.5C 222.058,567.763 216.558,566.096 211,564.5C 207.357,566.648 203.857,568.981 200.5,571.5C 200.103,570.475 199.437,570.308 198.5,571C 193.004,574.916 187.337,578.582 181.5,582C 179.527,582.495 177.527,582.662 175.5,582.5C 176.4,576.667 176.4,571 175.5,565.5C 175.851,563.131 176.018,560.797 176,558.5C 172,553.167 168,547.833 164,542.5C 159.716,535.269 156.549,527.602 154.5,519.5C 155.124,519.083 155.457,518.416 155.5,517.5C 154.012,511.226 152.845,504.892 152,498.5C 151.83,487.992 151.33,477.659 150.5,467.5C 152.114,444.446 161.114,424.946 177.5,409C 183.888,404.807 190.888,402.307 198.5,401.5C 206.048,402.596 213.548,403.929 221,405.5C 230.027,403.195 239.193,401.861 248.5,401.5C 257.455,401.946 266.288,403.279 275,405.5C 297.208,397.048 315.208,402.381 329,421.5C 337.865,435.929 343.032,451.595 344.5,468.5 Z"/></g>
<g><path style="opacity:1" fill="#071233" d="M 318.5,429.5 C 324.154,437.598 327.987,446.598 330,456.5C 330.774,460.147 331.441,463.814 332,467.5C 332.821,478.542 332.655,486.875 331.5,492.5C 332.663,470.315 328.33,449.315 318.5,429.5 Z"/></g>
<g><path style="opacity:1" fill="#fcfbfa" d="M 318.5,429.5 C 328.33,449.315 332.663,470.315 331.5,492.5C 330.208,503.281 327.875,513.948 324.5,524.5C 320.904,533.354 315.57,541.021 308.5,547.5C 299.564,535.859 288.231,527.359 274.5,522C 269.552,520.744 264.552,519.744 259.5,519C 286.67,507.153 295.836,486.987 287,458.5C 273.373,433.109 253.206,425.942 226.5,437C 205.612,451.307 199.445,470.473 208,494.5C 214.137,506.498 223.637,514.665 236.5,519C 215.44,520.86 198.44,530.027 185.5,546.5C 171.464,531.401 164.297,513.401 164,492.5C 162.278,471.5 165.944,451.5 175,432.5C 179.369,424.463 185.869,418.963 194.5,416C 203.056,416.177 211.556,417.01 220,418.5C 230.013,417.331 240.013,415.998 250,414.5C 258.51,415.921 267.01,417.255 275.5,418.5C 283.812,417.11 292.145,416.277 300.5,416C 308.101,418.443 314.101,422.943 318.5,429.5 Z"/></g>
<g><path style="opacity:1" fill="#f8fafa" d="M 261.5,466.5 C 269.642,466.481 272.808,470.481 271,478.5C 268.335,483.434 264.502,484.601 259.5,482C 255.029,476.012 255.696,470.845 261.5,466.5 Z"/></g>
<g><path style="opacity:1" fill="#f8fafa" d="M 229.5,466.5 C 237.149,466.314 240.315,469.981 239,477.5C 234.813,485.073 230.146,485.406 225,478.5C 223.474,473.239 224.974,469.239 229.5,466.5 Z"/></g>
<g><path style="opacity:1" fill="#0f2241" d="M 864.5,470.5 C 871.673,472.171 876.507,476.504 879,483.5C 880.441,500.11 880.941,516.777 880.5,533.5C 876.167,533.5 871.833,533.5 867.5,533.5C 867.335,530.482 867.502,527.482 868,524.5C 868.497,527.146 868.664,529.813 868.5,532.5C 871.833,532.5 875.167,532.5 878.5,532.5C 878.667,516.497 878.5,500.497 878,484.5C 877.529,482.754 876.862,481.087 876,479.5C 872.356,475.227 868.523,472.227 864.5,470.5 Z"/></g>
<g><path style="opacity:1" fill="#0d1531" d="M 324.5,524.5 C 325.043,524.56 325.376,524.893 325.5,525.5C 322.21,534.782 316.544,542.116 308.5,547.5C 315.57,541.021 320.904,533.354 324.5,524.5 Z"/></g>
<g><path style="opacity:1" fill="#000e46" d="M 520.5,526.5 C 520.5,537.167 520.5,547.833 520.5,558.5C 519.833,558.5 519.167,558.5 518.5,558.5C 518.333,547.162 518.5,535.828 519,524.5C 519.278,525.416 519.778,526.082 520.5,526.5 Z"/></g>
<g><path style="opacity:1" fill="#081f46" d="M 300.5,565.5 C 290.859,566.226 281.192,566.726 271.5,567C 262.38,569.924 253.047,571.757 243.5,572.5C 238.083,571.916 232.749,570.916 227.5,569.5C 242.658,571.857 257.658,570.357 272.5,565C 282.009,564.176 291.343,564.342 300.5,565.5 Z"/></g>
<g><path style="opacity:1" fill="#0a183d" d="M 175.5,565.5 C 176.4,571 176.4,576.667 175.5,582.5C 177.527,582.662 179.527,582.495 181.5,582C 187.337,578.582 193.004,574.916 198.5,571C 199.437,570.308 200.103,570.475 200.5,571.5C 194.03,575.906 187.363,580.073 180.5,584C 178.833,584.667 177.167,584.667 175.5,584C 174.326,577.885 174.326,571.718 175.5,565.5 Z"/></g>
<g><path style="opacity:1" fill="#02275b" d="M 228.5,592.5 C 243.963,591.129 250.796,598.129 249,613.5C 244.498,622.668 237.332,625.835 227.5,623C 218.17,616.819 216.004,608.652 221,598.5C 223.114,595.879 225.614,593.879 228.5,592.5 Z"/></g>
<g><path style="opacity:1" fill="#fea805" d="M 170.5,393.5 C 132.89,427.845 120.39,469.845 133,519.5C 139.113,536.267 148.446,550.934 161,563.5C 159.971,578.117 156.805,592.284 151.5,606C 169.266,603.523 186.1,598.023 202,589.5C 204.868,592.736 207.368,596.236 209.5,600C 188.021,614.288 164.355,621.621 138.5,622C 135.572,618.743 134.738,614.909 136,610.5C 140.125,597.334 143.625,584.001 146.5,570.5C 140.506,562.33 134.673,553.996 129,545.5C 108.529,502.199 109.863,459.532 133,417.5C 134.699,414.079 136.865,411.079 139.5,408.5C 154.319,389.179 172.819,374.513 195,364.5C 195.5,364.833 196,365.167 196.5,365.5C 195.689,366.216 195.022,367.05 194.5,368C 195.424,369.15 195.424,370.15 194.5,371C 195.047,371.925 195.713,372.758 196.5,373.5C 196.807,372.113 196.807,370.446 196.5,368.5C 197.552,368.649 198.552,368.483 199.5,368C 199.056,366.467 198.723,364.967 198.5,363.5C 204.113,360.785 204.779,361.785 200.5,366.5C 201.641,367.425 201.641,368.259 200.5,369C 201.549,369.492 202.549,369.326 203.5,368.5C 204.7,369.531 206.034,370.365 207.5,371C 200.93,373.284 194.597,376.118 188.5,379.5C 187.757,378.092 186.923,376.759 186,375.5C 185.682,377.061 184.849,378.228 183.5,379C 185.956,381.159 185.29,381.992 181.5,381.5C 181.649,382.552 181.483,383.552 181,384.5C 177.747,386.543 174.58,388.71 171.5,391C 170.001,391.838 169.668,392.671 170.5,393.5 Z"/></g>
</svg>
